<?xml version="1.0" encoding="utf-8"?>
<!-- Generator: Adobe Illustrator 22.0.1, SVG Export Plug-In . SVG Version: 6.00 Build 0)  -->
<svg version="1.1" id="Layer_1" xmlns="http://www.w3.org/2000/svg" xmlns:xlink="http://www.w3.org/1999/xlink" x="0px" y="0px"
	 viewBox="0 0 90 90" style="enable-background:new 0 0 90 90;" xml:space="preserve">
<style type="text/css">
	.st0{fill:#FFFFFF;}
</style>
<path class="st0" d="M46,9.4c-12.1,0-22,9.8-22,22c0,12.1,9.8,22,22,22c12.1,0,22-9.8,22-22C68,19.2,58.1,9.4,46,9.4z M46,50.8
	c-10.7,0-19.4-8.7-19.4-19.4C26.6,20.7,35.2,12,46,12c10.7,0,19.4,8.7,19.4,19.4C65.4,42.1,56.7,50.8,46,50.8z"/>
<path class="st0" d="M37.2,23.5c-0.9,0.9-3.1,3.4-3.8,7.2c-0.7,3.4,0.1,6.1,0.6,7.3c0.2,0.6,2,4.8,6.6,6.8c0.5,0.2,2.1,0.9,4.4,1
	c2.3,0.1,4-0.3,4.7-0.6c0.4-0.1,1.6-0.5,2.9-1.3c1.1-0.7,3.6-2.2,5.1-5.3c1.1-2.3,1.2-4.5,1-5.7c-0.1-0.8-0.4-1.6-0.4-1.6
	c-0.2-0.7-0.5-1.3-0.9-1.8c-1.2-1.4-2.4-2.4-3.8-3c0.3,0.7,0.7,1.5,0.8,2.6c0.1,0.6,0.1,1.4-0.2,2.3c-0.1,0.3-0.5,1.2-1.3,1.9
	c-1.2,0.9-2.5,0.9-3.3,0.9c-0.8,0-2.6,0-4-1.3c-0.9-0.9-1.2-2-1.3-2.4c-0.2-0.8-0.1-1.5,0-2.8c0.1-0.7,0.1-1.5,0.3-2.5
	c0.1-0.5,0.4-1.8,1.7-4.1c0.7-1.3,1.8-3,3.4-4.9C47.4,16.7,39.9,20,37.2,23.5z"/>
<path class="st0" d="M48.9,26.3c-0.1,0.2-0.2,0.5-0.2,0.9c0,0.2,0,0.4,0.1,0.7c0.1,0.1,0.2,0.4,0.4,0.5c0.1,0.1,0.2,0.1,0.2,0.1
	c0.1,0,0.2,0,0.4-0.1c0,0,0.1-0.1,0.1-0.1c0,0,0.1-0.1,0.1-0.2c0-0.2,0-0.3,0-0.4c0-0.1,0-0.2-0.1-0.4c-0.1-0.2-0.3-0.3-0.4-0.3
	c-0.1,0-0.3-0.1-0.4-0.3c-0.1-0.2-0.1-0.4-0.1-0.4c0-0.1,0-0.1,0-0.2c0-0.1,0-0.1,0-0.2c0-0.1,0-0.2,0-0.2
	C49,26,48.9,26.1,48.9,26.3z"/>
<path class="st0" d="M41.8,8.8c1.2-0.3,2.9-0.5,4.8-0.5c1.7,0,3.1,0.3,4.3,0.6c-0.8-0.5-1.9-1.4-2.9-2.8c-1.6-2.4-1.7-4.9-1.7-5.8
	c0,1.1-0.2,3.5-1.9,5.8C43.5,7.4,42.5,8.3,41.8,8.8z"/>
<path class="st0" d="M68.7,26.9c0.3,1.2,0.6,2.8,0.5,4.8c0,1.7-0.3,3.1-0.5,4.3c0.5-0.8,1.3-1.9,2.8-2.9c2.4-1.6,4.8-1.7,5.8-1.7
	c-1.1,0-3.5-0.2-5.9-1.8C70.1,28.6,69.3,27.6,68.7,26.9z"/>
<path class="st0" d="M23.3,26.8c-0.3,1.2-0.6,2.8-0.5,4.8c0,1.7,0.3,3.1,0.5,4.3c-0.5-0.8-1.3-1.9-2.8-2.9c-2.4-1.6-4.8-1.7-5.8-1.7
	c1.1,0,3.5-0.2,5.9-1.8C21.9,28.6,22.8,27.6,23.3,26.8z"/>
<path class="st0" d="M53.6,52.9c-2,0.7-4.3,1.5-7.5,1.6c-4.7,0.2-8.2-1.3-9.2-1.7c-3.5-1.5-5.6-3.6-5.7-3.4
	c-0.2,0.3,4.2,4.4,6.5,7.2c1,1.3,2,2.7,2,2.7c0.3,0.4,0.5,0.8,0.8,1.3c0.1,0.1,1.8,3.1,2.7,5.4c1,1.1,0.5,9.6-0.5,14.7
	c-0.4,3.8-0.4,6.9,1.3,8.3c1.2,1.1,3.7,1,4.8,0.1c1.7-1.4,1.7-5.5,0.9-8.9c-1.8-7.5-1.1-11.6-0.4-14.3c0.8-2.6,2-4.7,2.2-5
	c0.8-1.3,1.2-1.7,3.3-4.1c3.1-3.6,6.1-7.5,6.1-7.5C60.8,49.3,58,51.4,53.6,52.9z M50.1,59c-1.9,2.5-3.3,5-4.2,7
	c-1-2.1-2.4-4.8-4.5-7.4c-1.8-2.3-3.6-4-5.1-5.1c6.7,4.1,13.3,3.6,19.9-0.5C54.5,54.2,52.3,56.1,50.1,59z"/>
<path class="st0" d="M35.7,4.6c0.3-0.4,2-2.7,4.9-2.7c0.9,0,1.7,0.2,2.2,0.5c0.1,0.1,1.4,0.8,1.4,2.1c0.1,1.1-0.7,1.9-1.1,2.3
	c-0.4,0.4-0.8,0.7-1.1,0.8c-1.6,0.9-3.2,1-4.8,1.2c0,0-1.9,0.3-3.7,0.8c-1.2,0.4-3.9,1.2-6,3.4c-2,2.2-2.5,4.9-3,7.4
	c-0.4,2-0.3,2.9-1.1,4.7c-1,2.4-2.3,3.2-3,3.5c-0.4,0.2-1.2,0.6-2.2,0.5c0,0-0.8-0.1-1.4-0.6c-1.1-0.9-1.3-3-0.5-5.1
	c0.3-0.6,1-1.8,2.4-2.7c0.9-0.6,1.8-0.9,2.4-1c-0.5,0.2-2.6,1.1-3.6,3.3c-0.6,1.3-0.6,2.5-0.6,3.1c0.1,0.3,0.6,1.6,1.6,1.9
	c1.5,0.5,3.1-1.4,3.4-1.7c1.9-2.2,2-5.4,2-6.4c0-0.4,0-1.2,0.3-2.4c0.1-0.6,0.3-1.2,0.6-1.9c0.8-1.9,1.9-3.1,2.4-3.6
	c1.2-1.3,2.4-1.9,2.8-2.1c1.4-0.7,2.6-1,4.5-1.4c1.3-0.3,2.5-0.4,2.5-0.4C39.1,7.9,39.9,8,41,7.5c0.8-0.3,1.4-0.8,1.7-1.1
	c0.1-0.2,0.6-0.8,0.5-1.7c-0.1-0.5-0.3-0.8-0.4-1c-0.2-0.3-0.5-0.6-1-0.9c-0.2-0.1-1-0.5-2.8,0.1C38.3,3.1,37.1,3.6,35.7,4.6z"/>
<path class="st0" d="M56.5,4.6c-0.3-0.4-2-2.7-4.9-2.7c-0.9,0-1.7,0.2-2.2,0.5c-0.1,0.1-1.4,0.8-1.4,2.1c-0.1,1.1,0.7,1.9,1.1,2.3
	c0.4,0.4,0.8,0.7,1.1,0.8c1.6,0.9,3.2,1,4.8,1.2c0,0,1.9,0.3,3.7,0.8c1.2,0.4,3.9,1.2,6,3.4c2,2.2,2.5,4.9,3,7.4
	c0.4,2,0.3,2.9,1.1,4.7c1,2.4,2.3,3.2,3,3.5c0.4,0.2,1.2,0.6,2.2,0.5c0,0,0.8-0.1,1.4-0.6c1.1-0.9,1.3-3,0.5-5.1
	c-0.3-0.6-1-1.8-2.4-2.7c-0.9-0.6-1.8-0.9-2.4-1c0.5,0.2,2.6,1.1,3.6,3.3c0.6,1.3,0.6,2.5,0.6,3.1c-0.1,0.3-0.6,1.6-1.6,1.9
	c-1.5,0.5-3.1-1.4-3.4-1.7c-1.9-2.2-2-5.4-2-6.4c0-0.4,0-1.2-0.3-2.4c-0.1-0.6-0.3-1.2-0.6-1.9c-0.8-1.9-1.9-3.1-2.4-3.6
	c-1.2-1.3-2.4-1.9-2.8-2.1c-1.4-0.7-2.6-1-4.5-1.4C56.1,8.3,55,8.1,55,8.1c-1.9-0.2-2.7-0.2-3.8-0.6c-0.8-0.3-1.4-0.8-1.7-1.1
	c-0.1-0.2-0.6-0.8-0.5-1.7c0.1-0.5,0.3-0.8,0.4-1c0.2-0.3,0.5-0.6,1-0.9c0.2-0.1,1-0.5,2.8,0.1C53.9,3.1,55.1,3.6,56.5,4.6z"/>
<path class="st0" d="M35.7,57.8c0.3,0.4,2,2.7,4.9,2.7c0.9,0,1.7-0.2,2.2-0.5c0.1-0.1,1.4-0.8,1.4-2.1c0.1-1.1-0.7-1.9-1.1-2.3
	c-0.4-0.4-0.8-0.7-1.1-0.8c-1.6-0.9-3.2-1-4.8-1.2c0,0-1.9-0.3-3.7-0.8c-1.2-0.4-3.9-1.2-6-3.4c-2-2.2-2.5-4.9-3-7.4
	c-0.4-2-0.3-2.9-1.1-4.7c-1-2.4-2.3-3.2-3-3.5c-0.4-0.2-1.2-0.6-2.2-0.5c0,0-0.8,0.1-1.4,0.6c-1.1,0.9-1.3,3-0.5,5.1
	c0.3,0.6,1,1.8,2.4,2.7c0.9,0.6,1.8,0.9,2.4,1c-0.5-0.2-2.6-1.1-3.6-3.3c-0.6-1.3-0.6-2.5-0.6-3.1c0.1-0.3,0.6-1.6,1.6-1.9
	c1.5-0.5,3.1,1.4,3.4,1.7c1.9,2.2,2,5.4,2,6.4c0,0.4,0,1.2,0.3,2.4c0.1,0.6,0.3,1.2,0.6,1.9c0.8,1.9,1.9,3.1,2.4,3.6
	c1.2,1.3,2.4,1.9,2.8,2.1c1.4,0.7,2.6,1,4.5,1.4c1.3,0.3,2.5,0.4,2.5,0.4c1.9,0.2,2.7,0.2,3.8,0.6c0.8,0.3,1.4,0.8,1.7,1.1
	c0.1,0.2,0.6,0.8,0.5,1.7c-0.1,0.5-0.3,0.8-0.4,1c-0.2,0.3-0.5,0.6-1,0.9c-0.2,0.1-1,0.5-2.8-0.1C38.3,59.2,37.1,58.8,35.7,57.8z"/>
<path class="st0" d="M56.6,57.8c-0.3,0.4-2,2.7-4.9,2.7c-0.9,0-1.7-0.2-2.2-0.5c-0.1-0.1-1.4-0.8-1.4-2.1c-0.1-1.1,0.7-1.9,1.1-2.3
	c0.4-0.4,0.8-0.7,1.1-0.8c1.6-0.9,3.2-1,4.8-1.2c0,0,1.9-0.3,3.7-0.8c1.2-0.4,3.9-1.2,6-3.4c2-2.2,2.5-4.9,3-7.4
	c0.4-2,0.3-2.9,1.1-4.7c1-2.4,2.3-3.2,3-3.5c0.4-0.2,1.2-0.6,2.2-0.5c0,0,0.8,0.1,1.4,0.6c1.1,0.9,1.3,3,0.5,5.1
	c-0.3,0.6-1,1.8-2.4,2.7c-0.9,0.6-1.8,0.9-2.4,1c0.5-0.2,2.6-1.1,3.6-3.3c0.6-1.3,0.6-2.5,0.6-3.1c-0.1-0.3-0.6-1.6-1.6-1.9
	c-1.5-0.5-3.1,1.4-3.4,1.7c-1.9,2.2-2,5.4-2,6.4c0,0.4,0,1.2-0.3,2.4c-0.1,0.6-0.3,1.2-0.6,1.9c-0.8,1.9-1.9,3.1-2.4,3.6
	c-1.2,1.3-2.4,1.9-2.8,2.1c-1.4,0.7-2.6,1-4.5,1.4c-1.3,0.3-2.5,0.4-2.5,0.4c-1.9,0.2-2.7,0.2-3.8,0.6c-0.8,0.3-1.4,0.8-1.7,1.1
	c-0.1,0.2-0.6,0.8-0.5,1.7c0.1,0.5,0.3,0.8,0.4,1c0.2,0.3,0.5,0.6,1,0.9c0.2,0.1,1,0.5,2.8-0.1C54,59.2,55.3,58.8,56.6,57.8z"/>
</svg>
